<?xml version="1.0" encoding="UTF-8"?>
<svg xmlns="http://www.w3.org/2000/svg" xmlns:xlink="http://www.w3.org/1999/xlink" width="105px" height="64px" viewBox="0 0 105 64" version="1.1">
<defs>
<linearGradient id="linear0" gradientUnits="userSpaceOnUse" x1="0.14982" y1="0.91402" x2="0.84896" y2="0.2491" gradientTransform="matrix(30.402344,0,0,29.003906,30.800781,16)">
<stop offset="0.28" style="stop-color:rgb(98.039216%,8.627451%,37.647059%);stop-opacity:1;"/>
<stop offset="0.78" style="stop-color:rgb(100%,43.137255%,0%);stop-opacity:1;"/>
</linearGradient>
</defs>
<g id="surface1">
<path style=" stroke:none;fill-rule:nonzero;fill:rgb(100%,100%,100%);fill-opacity:1;" d="M 102.324219 29.378906 L 95.097656 29.378906 L 95.097656 22.128906 L 91.257812 22.128906 L 91.257812 29.378906 L 84.03125 29.378906 L 84.03125 33.117188 L 91.257812 33.117188 L 91.257812 40.367188 L 95.097656 40.367188 L 95.097656 33.117188 L 102.324219 33.117188 Z M 102.324219 29.378906 "/>
<path style=" stroke:none;fill-rule:nonzero;fill:url(#linear0);" d="M 61.203125 27.0625 L 49.804688 27.0625 C 49.65625 27.0625 49.582031 26.988281 49.542969 26.839844 L 45.96875 16 L 42.460938 26.839844 C 42.425781 26.988281 42.347656 27.0625 42.199219 27.0625 L 30.800781 27.0625 L 40.003906 33.792969 C 40.101562 33.867188 40.238281 33.867188 40.339844 33.792969 C 42.871094 32.222656 45.144531 31.101562 49.878906 29.90625 C 45.558594 33.269531 41.308594 37.082031 37.808594 41.492188 C 37.703125 41.609375 37.628906 41.75 37.585938 41.902344 L 36.578125 45.003906 L 45.78125 38.316406 C 45.929688 38.203125 46.003906 38.203125 46.152344 38.316406 L 55.355469 45 L 51.855469 34.089844 C 51.816406 33.941406 51.855469 33.863281 51.964844 33.789062 Z M 61.203125 27.0625 "/>
<path style=" stroke:none;fill-rule:nonzero;fill:rgb(100%,100%,100%);fill-opacity:1;" d="M 70.882812 24.261719 C 72.742188 24.261719 73.933594 25.230469 73.933594 26.839844 C 73.933594 28.519531 72.742188 29.714844 70.878906 29.714844 L 67.902344 29.714844 L 67.902344 24.261719 Z M 73.226562 33.53125 C 76.429688 33.117188 79.074219 30.351562 79.074219 26.839844 C 79.074219 22.277344 75.984375 19.773438 70.992188 19.773438 L 62.832031 19.773438 L 62.832031 42.722656 L 67.902344 42.722656 L 67.902344 33.640625 L 73.972656 42.722656 L 79.859375 42.722656 Z M 32.628906 19.773438 L 17.539062 19.773438 L 17.539062 24.40625 L 22.496094 24.40625 L 22.496094 42.722656 L 27.671875 42.722656 L 27.671875 24.410156 L 32.628906 24.410156 Z M 8.007812 28.1875 C 6.554688 27.511719 6 26.800781 6 25.867188 C 6 24.78125 6.929688 23.886719 8.308594 23.921875 C 9.574219 23.960938 10.503906 24.632812 11.214844 26.242188 L 15.574219 24.335938 C 14.382812 21.269531 11.960938 19.476562 8.050781 19.476562 C 3.914062 19.476562 0.859375 22.203125 0.859375 25.867188 C 0.859375 28.371094 2.050781 30.425781 5.105469 31.957031 L 8.160156 33.492188 C 9.871094 34.347656 10.691406 34.988281 10.691406 36.257812 C 10.691406 37.601562 9.574219 38.574219 8.160156 38.574219 C 6.632812 38.574219 5.253906 37.71875 4.621094 35.773438 L 0 37.121094 C 1.039062 40.894531 4.136719 43.097656 8.160156 43.097656 C 12.519531 43.097656 15.871094 40.296875 15.871094 36.257812 C 15.871094 33.15625 14.230469 31.066406 10.914062 29.53125 Z M 8.007812 28.1875 "/>
</g>
</svg>
